<?xml version="1.0" encoding="iso-8859-1"?>
<!-- Generator: Adobe Illustrator 19.0.0, SVG Export Plug-In . SVG Version: 6.00 Build 0)  -->
<svg version="1.1" id="Capa_1" xmlns="http://www.w3.org/2000/svg" xmlns:xlink="http://www.w3.org/1999/xlink" x="0px" y="0px"
	 viewBox="0 0 512 512" style="enable-background:new 0 0 512 512;" fill="#f39305" xml:space="preserve">
<g>
	<g>
		<path d="M350.134,278.886c-2.389-3.381-7.067-4.19-10.453-1.797c-3.383,2.39-4.188,7.069-1.797,10.453
			c11.971,16.944,18.299,36.909,18.299,57.735c0,55.241-44.941,100.183-100.183,100.183c-55.241,0-100.183-44.941-100.183-100.183
			c0-55.242,44.942-100.183,100.183-100.183c23.066,0,45.58,8.028,63.395,22.606c3.207,2.622,7.932,2.151,10.555-1.055
			s2.15-7.932-1.055-10.555c-20.487-16.764-46.375-25.996-72.895-25.996c-63.512,0-115.183,51.671-115.183,115.183
			S192.488,460.46,256,460.46s115.183-51.671,115.183-115.183C371.183,321.334,363.905,298.376,350.134,278.886z"/>
	</g>
</g>
<g>
	<g>
		<path d="M504.5,288.079h-58.766v-37.85l52.472-29.984h6.294c4.143,0,7.5-3.357,7.5-7.5s-3.357-7.5-7.5-7.5h-6.29l-52.475-29.986
			v-12.214c0-4.143-3.357-7.5-7.5-7.5s-7.5,3.357-7.5,7.5v12.214l-52.476,29.986h-6.291c-4.143,0-7.5,3.357-7.5,7.5
			s3.357,7.5,7.5,7.5h6.295l52.473,29.985v37.849h-46.925c-21.916-48.779-70.959-82.834-127.808-82.834
			c-43.692,0-82.769,20.118-108.469,51.572v-10.939c0-4.143-3.358-7.5-7.5-7.5H81.266v-52.47
			c9.608-3.16,16.567-12.212,16.567-22.864c0-3.905-0.941-7.593-2.599-10.857l37.107-37.107l64.983,64.983
			c1.464,1.464,3.384,2.196,5.303,2.196s3.839-0.732,5.303-2.196c2.929-2.93,2.929-7.678,0-10.607l-4.92-4.921l-38.221-81.903
			l7.999-7.999c2.929-2.929,2.929-7.678,0-10.606c-2.928-2.93-7.677-2.929-10.606-0.001l-8,7.999L72.28,33.805l-4.922-4.922
			c-2.929-2.928-7.678-2.928-10.606,0c-2.929,2.93-2.929,7.678,0,10.607l64.982,64.982l-37.105,37.106
			c-3.266-1.66-6.955-2.602-10.863-2.602c-13.271,0-24.067,10.797-24.067,24.067c0,10.652,6.959,19.704,16.567,22.864v52.47H7.501
			c-4.142,0-7.5,3.357-7.5,7.5v24.84c0,0.003-0.001,0.006-0.001,0.01c0,0.004,0.001,0.006,0.001,0.01v124.237
			c0,4.143,3.358,7.5,7.5,7.5h41.36c0.02,0,0.039,0.003,0.058,0.003c0.02,0,0.038-0.003,0.058-0.003h17.292v53.364l-44.572,14.858
			c-3.93,1.31-6.053,5.558-4.744,9.487c1.048,3.142,3.974,5.13,7.114,5.13c0.786,0,1.586-0.125,2.373-0.387l47.329-15.777
			l47.328,15.777c3.928,1.31,8.176-0.813,9.487-4.743c1.31-3.93-0.814-8.177-4.744-9.487l-44.571-14.858v-53.364h17.292
			c0.02,0,0.038,0.003,0.058,0.003c0.02,0,0.038-0.003,0.058-0.003h29.515c7.944,17.681,19.449,33.428,33.602,46.319l-11.998,25.861
			c-1.743,3.758-0.11,8.217,3.647,9.96c1.021,0.474,2.095,0.698,3.151,0.698c2.83,0,5.539-1.61,6.809-4.346l10.392-22.401
			c23.102,16.809,51.513,26.743,82.205,26.743c30.691,0,59.102-9.933,82.204-26.741l10.392,22.4c1.27,2.736,3.978,4.346,6.809,4.346
			c1.057,0,2.13-0.225,3.151-0.698c3.758-1.743,5.391-6.203,3.647-9.96l-11.997-25.86c18.437-16.793,32.38-38.434,39.807-62.884
			h40.721v69.927l-44.572,14.858c-3.93,1.31-6.053,5.558-4.743,9.487c1.31,3.93,5.555,6.05,9.487,4.743l47.328-15.777l47.328,15.777
			c0.787,0.262,1.587,0.387,2.373,0.387c3.14,0,6.066-1.987,7.114-5.13c1.31-3.93-0.813-8.178-4.743-9.487l-44.572-14.858v-69.927
			H504.5c4.143,0,7.5-3.357,7.5-7.5v-82.833C512,291.436,508.642,288.079,504.5,288.079z M103.317,64.842l46.811,21.844
			l21.845,46.812l-34.31-34.31c-0.006-0.007-0.012-0.014-0.018-0.02c-0.007-0.007-0.014-0.012-0.02-0.018L103.317,64.842z
			 M64.699,163.044c0-5,4.068-9.067,9.067-9.067c4.999,0,9.067,4.067,9.067,9.067c0,4.999-4.067,9.066-9.067,9.066
			S64.699,168.043,64.699,163.044z M15.001,253.378h117.531v0v9.85H15.001V253.378z M122.471,387.475h-16.352v-9.064
			c0-4.143-3.358-7.5-7.5-7.5c-4.142,0-7.5,3.357-7.5,7.5v9.064h-34.7v-9.064c0-4.143-3.358-7.5-7.5-7.5c-4.142,0-7.5,3.357-7.5,7.5
			v9.064H15.001V278.228h117.531v1.043c-10.562,19.678-16.563,42.154-16.563,66.007
			C115.969,359.978,118.252,374.153,122.471,387.475z M256.001,470.31c-68.943,0-125.032-56.089-125.032-125.032
			s56.089-125.033,125.032-125.033s125.032,56.09,125.032,125.033S324.944,470.31,256.001,470.31z M438.234,188.248l29.743,16.996
			H408.49L438.234,188.248z M408.493,220.245h59.48l-29.74,16.994L408.493,220.245z M497,370.911h-26.415v-9.065
			c0-4.143-3.357-7.5-7.5-7.5s-7.5,3.357-7.5,7.5v9.066h-34.701v-9.066c0-4.143-3.357-7.5-7.5-7.5s-7.5,3.357-7.5,7.5v9.066h-12.21
			c1.544-8.314,2.36-16.88,2.36-25.634c0-5.874-0.368-11.663-1.074-17.35H497V370.911z M497,312.929H392.254
			c-0.791-3.33-1.699-6.615-2.724-9.85H497V312.929z"/>
	</g>
</g>
<g>
</g>
<g>
</g>
<g>
</g>
<g>
</g>
<g>
</g>
<g>
</g>
<g>
</g>
<g>
</g>
<g>
</g>
<g>
</g>
<g>
</g>
<g>
</g>
<g>
</g>
<g>
</g>
<g>
</g>
</svg>
