<?xml version="1.0" encoding="utf-8"?>
<!-- Generator: Adobe Illustrator 19.1.1, SVG Export Plug-In . SVG Version: 6.00 Build 0)  -->
<svg version="1.1" id="Слой_1" xmlns="http://www.w3.org/2000/svg" xmlns:xlink="http://www.w3.org/1999/xlink" x="0px" y="0px"
	 viewBox="-226 -113 496 496" style="enable-background:new -226 -113 496 496;" xml:space="preserve">
<style type="text/css">
	.st0{fill:#838F9B;}
	.st1{fill:#E6E9ED;}
	.st2{fill:#969FAA;}
	.st3{fill:#656D78;}
	.st4{fill:#F39305;}
</style>
<path class="st0" d="M164.6,172.7c1,6.9,1.4,13.8,1.4,20.8c0,48.5-23.9,93.9-64,121.3l-55,37.7c-10.8,7.4-22.5,13-34.8,16.8
	C-0.1,373.1-13,375-26,375c-26.1,0-51.5-7.8-73-22.6l-55-37.7c-20-13.7-36-31.9-47-52.7c-11-20.8-17-44.3-17-68.6
	c0-7,0.5-13.9,1.4-20.8c4.4-30.4,6.6-61.1,6.6-91.8V79c0-50.8,20.6-96.8,53.9-130.1C-122.8-84.4-76.8-105-26-105
	c101.6,0,184,82.4,184,184v1.9C158,111.6,160.2,142.3,164.6,172.7z"/>
<path class="st1" d="M110,45.4l-1.3-2.1C94.6,20.8,69.8,7,43.1,7C31.4,7,20,9.6,9.7,14.6C-0.6,19.6-9.8,26.8-17.2,36L-26,47l-8.8-11
	C-49.4,17.6-71.7,7-95.1,7c-13.4,0-26.2,3.4-37.5,9.7c-11.3,6.3-21,15.4-28.1,26.6l-1.3,2.1c-10.5,16.7-16,36.1-16,55.8
	c0,11,1.8,21.8,5,32.2c3.3,10.3,8.2,20.2,14.6,29.1c6.4,9,14.8,16,24.2,21c9.5,4.9,20.2,7.5,31.2,7.5H51c22,0,42.6-10.6,55.4-28.5
	c6.3-9,11.3-18.8,14.6-29.1c3.3-10.4,5-21.2,5-32.2C126,81.5,120.5,62.1,110,45.4z"/>
<path class="st2" d="M-26,295c32.2,0,63.3-11.5,87.6-32.2l0.3,0.4C60.7,266.9,40.3,327-26,327c-68.5,0-88-64-88-64l0.3-0.4
	c10.8,9.4,23,16.7,35.9,22.1C-61.5,291.5-43.9,295-26,295z"/>
<path class="st3" d="M38.6,199.6C53.9,214.9,64.8,234,70,255l-0.4,0.4c-2.6,2.6-5.2,5-8,7.4C37.3,283.5,6.2,295-26,295
	c-17.9,0-35.5-3.5-51.8-10.3c-13-5.4-25.1-12.7-35.9-22.1c-2.7-2.2-5.4-4.6-7.9-7.2l-0.4-0.4c5.2-21,16.1-40.1,31.4-55.4l0.6-0.6
	l0.8-0.1c-0.6-2.6-0.8-5.2-0.8-7.9c0-19.4,13.8-35.5,32.1-39.2c2.6-0.6,5.2-0.8,7.9-0.8c9,0,17.3,3.1,24,8.2c6.7-5,15-8.2,24-8.2
	c2.7,0,5.4,0.2,7.9,0.8C24.2,155.5,38,171.6,38,191c0,2.7-0.2,5.4-0.8,7.9L38,199L38.6,199.6z"/>
<path class="st2" d="M-2,87l8,64l-0.1,0.8C3.4,151.2,0.7,151-2,151c-9,0-17.3,3.1-24,8.2c-6.7-5-15-8.2-24-8.2
	c-2.7,0-5.4,0.2-7.9,0.8L-58,151l8-64l-1-0.2c0.1-0.2,0.1-0.4,0.2-0.6l0.4-2C-42.9,86-34.7,87-26,87s16.9-1,24.4-2.8l0.4,2
	c0.1,0.2,0.1,0.4,0.2,0.6L-2,87z"/>
<path class="st4" d="M54.7,58.8C59.3,64.3,62,71.3,62,79c0,17.7-14.3,32-32,32c-15,0-27.6-10.3-31-24.2c-0.1-0.2-0.1-0.4-0.2-0.6
	l-0.4-2C15.8,80.3,30,72.7,39.7,66.3C44.4,63.2,49.4,60.6,54.7,58.8z"/>
<path class="st4" d="M-91.7,66.3c9.7,6.4,23.8,14,41.3,17.9l-0.4,2c-0.1,0.2-0.1,0.4-0.2,0.6C-54.4,100.7-67,111-82,111
	c-17.7,0-32-14.3-32-32c0-7.7,2.7-14.7,7.3-20.2C-101.4,60.6-96.4,63.2-91.7,66.3z"/>
<path d="M-58,183h16v16h-16V183z"/>
<path d="M-10,183H6v16h-16V183z"/>
<path d="M115.5,39.1C99.8,14,72.8-1,43.2-1c-26,0-50.3,11.7-66.6,32l-2.5,3.2l-2.5-3.2C-44.8,10.7-69.1-1-95.2-1
	c-29.6,0-56.6,15-72.3,40.1l-1.3,2C-180,59.2-186,80-186,101.2c0,23.8,7.3,46.6,21.1,65.9c14.2,20,37.4,31.9,61.9,31.9h2
	c-13.8,15.4-23.7,33.9-28.8,54.1l-0.7,4.8l3.2,3.2c1.9,1.9,4,3.6,6,5.4c3.2,8.9,26.9,68.5,95.3,68.5c68.4,0,92.1-59.7,95.3-68.5
	c2.1-1.9,4.3-3.7,6.4-5.8l3.2-3.2l-1.1-4.4c-5-20.1-15-38.7-28.8-54.1h2c24.5,0,47.7-11.9,61.9-31.9c13.8-19.3,21.1-42.1,21.1-65.9
	c0-21.3-6-42.1-17.2-60.1L115.5,39.1z M-26,319c-33.5,0-54.1-16.6-66-32.1c20.2,10.5,42.7,16.1,66,16.1c23.2,0,45.6-5.6,65.7-16
	C27.6,302.5,7.1,319-26,319z M-26,287c-32.5,0-63-12.1-87-34.5c4.2-14.3,11.3-27.4,20.7-38.9c8.1,15.1,24,25.4,42.3,25.4v-16
	c-17.6,0-32-14.4-32-32s14.4-32,32-32c6.9,0,13.5,2.3,19.2,6.6l4.8,3.6l4.8-3.6c5.7-4.3,12.3-6.6,19.2-6.6c17.6,0,32,14.4,32,32
	s-14.4,32-32,32v16c18.3,0,34.2-10.3,42.3-25.4c9.4,11.5,16.5,24.7,20.7,38.9C37.4,274.8,6.6,287-26,287z M-103.6,68.7
	c2.6,1.2,5.1,2.7,7.5,4.3c8.8,5.9,20.9,12.4,35.5,16.8c-4,8-12.1,13.3-21.4,13.3c-13.2,0-24-10.8-24-24
	C-106,75.3-105.1,71.9-103.6,68.7z M51.6,68.7C53.1,71.9,54,75.3,54,79c0,13.2-10.8,24-24,24c-9.3,0-17.4-5.3-21.4-13.3
	c14.6-4.4,26.7-10.9,35.5-16.8C46.5,71.3,49,69.9,51.6,68.7z M-9.2,93.7l6.2,49.4c-8.1,0.2-15.9,2.4-22.9,6.5
	c-7-4.1-14.9-6.3-22.9-6.5l6.2-49.4C-37.4,94.4-31.8,95-26,95S-14.6,94.4-9.2,93.7z M99.9,157.8C88.6,173.6,70.3,183,51,183h-5.7
	c-3-17.5-15.4-31.8-31.9-37.4l-4-32.4c6.1,3.7,13.1,5.8,20.7,5.8c22.1,0,40-17.9,40-40c0-5.3-1.2-10.4-3.1-15.2c3-0.5,6-0.8,9-0.8
	H78V47h-2.1c-14.2,0-28.3,4.4-40.6,12.6C22,68.5,0.6,79-26,79s-48-10.5-61.2-19.4C-99.6,51.4-113.7,47-127.9,47h-2.1v16h2.1
	c3,0,6,0.3,9,0.8c-2,4.8-3.1,9.9-3.1,15.2c0,22.1,17.9,40,40,40c7.5,0,14.6-2.1,20.7-5.8l-4,32.4c-16.5,5.6-28.9,19.9-31.9,37.4
	h-5.7c-19.4,0-37.6-9.4-48.9-25.2c-11.9-16.6-18.1-36.2-18.1-56.6c0-18.3,5.1-36.1,14.8-51.6l1.3-2C-141.2,27.2-119.2,15-95.2,15
	C-74,15-54.3,24.5-41,41l15,18.8L-11,41C2.3,24.5,22,15,43.2,15c24,0,46,12.2,58.8,32.6l1.3,2C112.9,65.1,118,83,118,101.2
	C118,121.6,111.7,141.2,99.9,157.8z"/>
<path class="st0" d="M172.4,171.5c-4.3-29.9-6.4-60.4-6.4-90.6V79c0-105.9-86.1-192-192-192c-105.9,0-192,86.1-192,192v1.9
	c0,30.2-2.2,60.7-6.4,90.6c-1,7.2-1.6,14.6-1.6,21.9c0,51.2,25.2,99,67.5,127.9l55,37.6c22.9,15.7,49.7,24,77.5,24s54.6-8.3,77.5-24
	l55-37.6c42.3-28.9,67.5-76.7,67.5-127.9C174,186.1,173.5,178.8,172.4,171.5z M97.5,308.2l-55,37.6C22.2,359.7-1.5,367-26,367
	s-48.2-7.3-68.5-21.2l-55-37.6c-37.9-25.9-60.5-68.8-60.5-114.7c0-6.6,0.5-13.2,1.4-19.7c4.4-30.7,6.6-61.9,6.6-92.9V79
	c0-97,79-176,176-176S150-18,150,79v1.9c0,31,2.2,62.3,6.6,92.9c0.9,6.5,1.4,13.1,1.4,19.7C158,239.4,135.4,282.3,97.5,308.2z"/>
</svg>
