<?xml version="1.0" encoding="utf-8"?>
<!-- Generator: Adobe Illustrator 19.1.1, SVG Export Plug-In . SVG Version: 6.00 Build 0)  -->
<svg version="1.1" id="Слой_1" xmlns="http://www.w3.org/2000/svg" xmlns:xlink="http://www.w3.org/1999/xlink" x="0px" y="0px"
	 viewBox="-226 -113 496 496" style="enable-background:new -226 -113 496 496;" xml:space="preserve">
<style type="text/css">
	.st0{fill:#F39305;}
	.st1{fill:#004274;}
	.st2{fill:#F39327;}
</style>
<path class="st0" d="M116.8,41.1l-1.3-2C99.8,14,72.8-1,43.2-1C17.1-1-7.2,10.7-23.5,31l-2.5,3.2l-2.5-3.2C-44.8,10.7-69.1-1-95.2-1
	c-29.6,0-56.6,15-72.3,40.1l-1.3,2C-180,59.2-186,80-186,101.2c0,23.8,7.3,46.6,21.1,65.9c14.2,20,37.4,31.9,61.9,31.9h13.8
	c-0.5-2.6-0.8-5.3-0.8-8c0-19.4,13.8-35.5,32.1-39.2c0-0.3-0.1-0.5-0.1-0.8l8-64h48l8,64c0,0.3-0.1,0.5-0.1,0.8
	C24.2,155.5,38,171.6,38,191c0,2.7-0.3,5.4-0.8,8H51c24.5,0,47.7-11.9,61.9-31.9c13.8-19.4,21.1-42.1,21.1-65.9
	C134,80,128,59.2,116.8,41.1z"/>
<path class="st0" d="M-82,111c-17.7,0-32-14.3-32-32c0-7.7,2.8-14.6,7.3-20.2c5.2,1.9,10.3,4.3,15,7.4c9.6,6.4,23.8,13.9,41.2,17.8
	C-53,99.3-66.1,111-82,111z"/>
<path class="st0" d="M30,111C14.1,111,1,99.3-1.5,84.1c17.4-4,31.5-11.4,41.2-17.8c4.7-3.1,9.8-5.5,15-7.4C59.2,64.4,62,71.3,62,79
	C62,96.7,47.7,111,30,111z"/>
<path d="M-58,183h16v16h-16V183z"/>
<path d="M-10,183H6v16h-16V183z"/>
<path class="st1" d="M45.8,195.6c0.1-1.5,0.2-3,0.2-4.6c0-21.1-13.7-39-32.6-45.4l-4-32.4c6.1,3.7,13.1,5.8,20.7,5.8
	c22.1,0,40-17.9,40-40c0-5.3-1.2-10.4-3.1-15.2c3-0.5,6-0.8,9-0.8H78V47h-2.1c-14.2,0-28.3,4.4-40.6,12.6C22,68.5,0.6,79-26,79
	s-48-10.5-61.2-19.4C-99.6,51.4-113.7,47-127.9,47h-2.1v16h2.1c3,0,6,0.3,9,0.8c-2,4.8-3.1,9.9-3.1,15.2c0,22.1,17.9,40,40,40
	c7.5,0,14.6-2.1,20.7-5.8l-4,32.4C-84.3,152-98,169.9-98,191c0,1.5,0.1,3.1,0.2,4.6c-15.5,16-26.6,35.8-32,57.5l-0.7,4.8l3.2,3.2
	c1.9,1.9,4,3.6,6,5.4c3.2,8.9,26.9,68.5,95.3,68.5c68.4,0,92.1-59.7,95.3-68.5c2.1-1.9,4.3-3.7,6.4-5.8l3.2-3.2l-1.1-4.4
	C72.3,231.4,61.3,211.6,45.8,195.6z M44.1,72.9c2.4-1.6,4.9-3,7.5-4.3C53.1,71.9,54,75.3,54,79c0,13.2-10.8,24-24,24
	c-9.3,0-17.4-5.3-21.4-13.3C23.2,85.3,35.3,78.8,44.1,72.9z M-9.2,93.7l6.2,49.4c-8.1,0.2-15.9,2.4-22.9,6.5
	c-7-4.1-14.9-6.3-22.9-6.5l6.2-49.4C-37.4,94.4-31.8,95-26,95S-14.6,94.4-9.2,93.7z M-82,103c-13.2,0-24-10.8-24-24
	c0-3.7,0.9-7.1,2.4-10.3c2.6,1.2,5.1,2.7,7.5,4.3c8.8,5.9,20.9,12.4,35.5,16.8C-64.6,97.7-72.7,103-82,103z M-92.3,213.6
	c8.1,15.1,24,25.4,42.3,25.4v-16c-17.6,0-32-14.4-32-32s14.4-32,32-32c6.9,0,13.5,2.3,19.2,6.6l4.8,3.6l4.8-3.6
	c5.7-4.3,12.3-6.6,19.2-6.6c17.6,0,32,14.4,32,32s-14.4,32-32,32v16c18.3,0,34.2-10.3,42.3-25.4c9.4,11.5,16.5,24.7,20.7,38.9
	C37.4,274.8,6.6,287-26,287c-32.5,0-63-12.1-87-34.5C-108.8,238.3-101.7,225.1-92.3,213.6z M-26,319c-33.5,0-54.1-16.6-66-32.1
	c20.2,10.5,42.7,16.1,66,16.1c23.2,0,45.6-5.6,65.7-16C27.6,302.5,7.1,319-26,319z"/>
<path class="st2" d="M172.4,171.5c-4.3-29.9-6.4-60.4-6.4-90.6V79c0-105.9-86.1-192-192-192c-105.9,0-192,86.1-192,192v1.9
	c0,30.2-2.2,60.7-6.4,90.6c-1,7.2-1.6,14.6-1.6,21.9c0,51.2,25.2,99,67.5,127.9l55,37.6c22.9,15.7,49.7,24,77.5,24s54.6-8.3,77.5-24
	l55-37.6c42.3-28.9,67.5-76.7,67.5-127.9C174,186.1,173.5,178.8,172.4,171.5z M97.5,308.2l-55,37.6C22.2,359.7-1.5,367-26,367
	s-48.2-7.3-68.5-21.2l-55-37.6c-37.9-25.9-60.5-68.8-60.5-114.7c0-6.6,0.5-13.2,1.4-19.7c4.4-30.7,6.6-61.9,6.6-92.9V79
	c0-97,79-176,176-176S150-18,150,79v1.9c0,31,2.2,62.3,6.6,92.9c0.9,6.5,1.4,13.1,1.4,19.7C158,239.4,135.4,282.3,97.5,308.2z"/>
</svg>
